<svg xmlns="http://www.w3.org/2000/svg" width="64" height="64" viewBox="0 0 64 64">
  <defs>
    <linearGradient id="g" x1="0" y1="0" x2="1" y2="1">
      <stop offset="0" stop-color="#E86027"/>
      <stop offset="1" stop-color="#00446F"/>
    </linearGradient>
  </defs>
  <rect width="64" height="64" rx="14" fill="#1F2126"/>
  <path d="M34 6c3 8-2 12-2 16 0 2 1 4 3 6 3 3 5 6 5 10 0 8-6 14-14 14S12 46 12 38c0-8 6-13 10-18 3-4 5-8 4-14 5 3 8 8 8 14 0 4-1 6 0 8 1-2 2-4 2-6 0-5-1-8-2-16Z" fill="url(#g)"/>
  <circle cx="48" cy="48" r="4" fill="#00A9E0"/>
</svg>
