<?xml version="1.0" encoding="UTF-8"?>
<!DOCTYPE svg PUBLIC "-//W3C//DTD SVG 1.1//EN" "http://www.w3.org/Graphics/SVG/1.1/DTD/svg11.dtd">
<svg xmlns="http://www.w3.org/2000/svg" version="1.1" width="249px" height="139px" style="shape-rendering:geometricPrecision; text-rendering:geometricPrecision; image-rendering:optimizeQuality; fill-rule:evenodd; clip-rule:evenodd" xmlns:xlink="http://www.w3.org/1999/xlink">
<g><path style="opacity:1" fill="#fdfcfc" d="M -0.5,-0.5 C 70.8333,-0.5 142.167,-0.5 213.5,-0.5C 210.391,3.3971 207.057,7.06377 203.5,10.5C 201.37,12.1271 199.37,13.9604 197.5,16C 194.5,16.3333 191.5,16.6667 188.5,17C 183.833,21.6667 179.167,26.3333 174.5,31C 171.167,31.3333 167.833,31.6667 164.5,32C 159.833,36.6667 155.167,41.3333 150.5,46C 146.5,46.3333 142.5,46.6667 138.5,47C 132.833,52.6667 127.167,58.3333 121.5,64C 116.5,64.3333 111.5,64.6667 106.5,65C 101.699,68.799 97.1994,72.9657 93,77.5C 91.6487,75.981 90.1487,74.6477 88.5,73.5C 83.8,78.0674 78.1333,79.7341 71.5,78.5C 71.5,79.8333 71.5,81.1667 71.5,82.5C 77.8452,83.5159 83.5118,82.1825 88.5,78.5C 89.8333,79.8333 91.1667,81.1667 92.5,82.5C 97.5,78 102.5,73.5 107.5,69C 112.5,68.6667 117.5,68.3333 122.5,68C 128.167,62.3333 133.833,56.6667 139.5,51C 143.5,50.6667 147.5,50.3333 151.5,50C 156.167,45.3333 160.833,40.6667 165.5,36C 168.833,35.6667 172.167,35.3333 175.5,35C 180.167,30.3333 184.833,25.6667 189.5,21C 192.5,20.6667 195.5,20.3333 198.5,20C 201.2,17.4119 203.533,14.5786 205.5,11.5C 209.262,8.07105 212.262,4.07105 214.5,-0.5C 225.833,-0.5 237.167,-0.5 248.5,-0.5C 248.5,39.8333 248.5,80.1667 248.5,120.5C 165.5,120.5 82.5,120.5 -0.5,120.5C -0.5,119.5 -0.5,118.5 -0.5,117.5C 9.01496,117.827 18.3483,117.494 27.5,116.5C 31.6365,116.518 34.1365,114.518 35,110.5C 35.6667,105.5 35.6667,100.5 35,95.5C 33.6217,92.8917 31.455,91.3917 28.5,91C 19.1726,90.5002 9.83928,90.3335 0.5,90.5C 0.166667,90.5 -0.166667,90.5 -0.5,90.5C -0.5,60.1667 -0.5,29.8333 -0.5,-0.5 Z"/></g>
<g><path style="opacity:1" fill="#a95254" d="M 213.5,-0.5 C 213.833,-0.5 214.167,-0.5 214.5,-0.5C 212.262,4.07105 209.262,8.07105 205.5,11.5C 205.158,10.6618 204.492,10.3284 203.5,10.5C 207.057,7.06377 210.391,3.3971 213.5,-0.5 Z"/></g>
<g><path style="opacity:1" fill="#a22932" d="M 203.5,10.5 C 204.492,10.3284 205.158,10.6618 205.5,11.5C 203.533,14.5786 201.2,17.4119 198.5,20C 195.5,20.3333 192.5,20.6667 189.5,21C 184.833,25.6667 180.167,30.3333 175.5,35C 172.167,35.3333 168.833,35.6667 165.5,36C 160.833,40.6667 156.167,45.3333 151.5,50C 147.5,50.3333 143.5,50.6667 139.5,51C 133.833,56.6667 128.167,62.3333 122.5,68C 117.5,68.3333 112.5,68.6667 107.5,69C 102.5,73.5 97.5,78 92.5,82.5C 91.1667,81.1667 89.8333,79.8333 88.5,78.5C 83.5118,82.1825 77.8452,83.5159 71.5,82.5C 71.5,81.1667 71.5,79.8333 71.5,78.5C 78.1333,79.7341 83.8,78.0674 88.5,73.5C 90.1487,74.6477 91.6487,75.981 93,77.5C 97.1994,72.9657 101.699,68.799 106.5,65C 111.5,64.6667 116.5,64.3333 121.5,64C 127.167,58.3333 132.833,52.6667 138.5,47C 142.5,46.6667 146.5,46.3333 150.5,46C 155.167,41.3333 159.833,36.6667 164.5,32C 167.833,31.6667 171.167,31.3333 174.5,31C 179.167,26.3333 183.833,21.6667 188.5,17C 191.5,16.6667 194.5,16.3333 197.5,16C 199.37,13.9604 201.37,12.1271 203.5,10.5 Z"/></g>
<g><path style="opacity:1" fill="#737373" d="M 17.5,74.5 C 11.9738,74.1786 6.64045,74.5119 1.5,75.5C 0.956913,75.44 0.62358,75.1067 0.5,74.5C 6.32045,73.1843 11.9871,73.1843 17.5,74.5 Z"/></g>
<g><path style="opacity:1" fill="#757575" d="M 41.5,74.5 C 46.3477,73.1863 51.3477,73.1863 56.5,74.5C 56.3764,75.1067 56.0431,75.44 55.5,75.5C 51.3656,74.5151 47.0323,74.1818 42.5,74.5C 42.1667,74.5 41.8333,74.5 41.5,74.5 Z"/></g>
<g><path style="opacity:1" fill="#111111" d="M 1.5,75.5 C 6.64045,74.5119 11.9738,74.1786 17.5,74.5C 15.3926,75.4682 13.0593,75.8016 10.5,75.5C 9.83333,92.8333 9.16667,92.8333 8.5,75.5C 6.16667,75.5 3.83333,75.5 1.5,75.5 Z"/></g>
<g><path style="opacity:1" fill="#111111" d="M 20.5,73.5 C 22.3435,75.2789 23.0102,77.6122 22.5,80.5C 26.8333,80.5 31.1667,80.5 35.5,80.5C 36.2271,71.2847 36.8938,71.4513 37.5,81C 36.8938,90.5487 36.2271,90.7153 35.5,81.5C 31.1667,81.5 26.8333,81.5 22.5,81.5C 22.8076,83.924 22.4742,86.2573 21.5,88.5C 20.5059,83.544 20.1725,78.544 20.5,73.5 Z"/></g>
<g><path style="opacity:1" fill="#000000" d="M 42.5,74.5 C 47.0323,74.1818 51.3656,74.5151 55.5,75.5C 51.8333,75.5 48.1667,75.5 44.5,75.5C 43.5489,76.9187 43.2155,78.5853 43.5,80.5C 47.5,80.5 51.5,80.5 55.5,80.5C 55.5,80.8333 55.5,81.1667 55.5,81.5C 51.5,81.5 47.5,81.5 43.5,81.5C 43.5,83.1667 43.5,84.8333 43.5,86.5C 42.4982,83.2775 42.1649,79.2775 42.5,74.5 Z"/></g>
<g><path style="opacity:1" fill="#919191" d="M 44.5,75.5 C 44.5,76.8333 44.5,78.1667 44.5,79.5C 48.3714,79.185 52.0381,79.5184 55.5,80.5C 51.5,80.5 47.5,80.5 43.5,80.5C 43.2155,78.5853 43.5489,76.9187 44.5,75.5 Z"/></g>
<g><path style="opacity:1" fill="#b9b9b9" d="M 55.5,81.5 C 52.0381,82.4816 48.3714,82.815 44.5,82.5C 44.5,83.8333 44.5,85.1667 44.5,86.5C 44.1667,86.5 43.8333,86.5 43.5,86.5C 43.5,84.8333 43.5,83.1667 43.5,81.5C 47.5,81.5 51.5,81.5 55.5,81.5 Z"/></g>
<g><path style="opacity:1" fill="#3b3b3b" d="M 41.5,74.5 C 41.8333,74.5 42.1667,74.5 42.5,74.5C 42.1649,79.2775 42.4982,83.2775 43.5,86.5C 43.8333,86.5 44.1667,86.5 44.5,86.5C 48.5546,86.1758 52.5546,86.5091 56.5,87.5C 51.544,88.4941 46.544,88.8275 41.5,88.5C 41.5,83.8333 41.5,79.1667 41.5,74.5 Z"/></g>
<g><path style="opacity:1" fill="#090909" d="M 44.5,90.5 C 53.9146,90.0828 63.2479,90.5828 72.5,92C 73.3333,92.8333 74.1667,93.6667 75,94.5C 75.9196,101.276 75.5863,107.943 74,114.5C 72.5806,115.46 71.0806,116.293 69.5,117C 60.7305,117.94 52.0638,117.607 43.5,116C 40.1087,112.385 38.7753,108.052 39.5,103C 38.4325,97.5684 40.0991,93.4018 44.5,90.5 Z"/></g>
<g><path style="opacity:1" fill="#0f0f0f" d="M 217.5,90.5 C 225.507,90.3336 233.507,90.5003 241.5,91C 246.051,92.0487 248.051,94.882 247.5,99.5C 244.002,100.045 241.002,99.212 238.5,97C 233.5,96.3333 228.5,96.3333 223.5,97C 221.941,98.9958 221.274,101.329 221.5,104C 221.536,106.094 221.869,108.094 222.5,110C 227.833,110.667 233.167,110.667 238.5,110C 238.957,109.586 239.291,109.086 239.5,108.5C 236.232,107.513 232.898,107.18 229.5,107.5C 229.5,105.5 229.5,103.5 229.5,101.5C 235.5,101.5 241.5,101.5 247.5,101.5C 247.665,105.182 247.499,108.848 247,112.5C 246.535,113.931 245.701,115.097 244.5,116C 235.936,117.607 227.27,117.94 218.5,117C 213.678,113.848 211.678,109.348 212.5,103.5C 211.681,98.1483 213.348,93.8149 217.5,90.5 Z"/></g>
<g><path style="opacity:1" fill="#070707" d="M 0.5,90.5 C 9.83928,90.3335 19.1726,90.5002 28.5,91C 31.455,91.3917 33.6217,92.8917 35,95.5C 35.6667,100.5 35.6667,105.5 35,110.5C 34.1365,114.518 31.6365,116.518 27.5,116.5C 18.5,116.5 9.5,116.5 0.5,116.5C 0.5,107.833 0.5,99.1667 0.5,90.5 Z"/></g>
<g><path style="opacity:1" fill="#0b0b0b" d="M 151.5,110.5 C 151.5,112.5 151.5,114.5 151.5,116.5C 149.167,116.5 146.833,116.5 144.5,116.5C 144.768,114.901 144.434,113.568 143.5,112.5C 138.604,110.554 133.271,109.887 127.5,110.5C 127.5,112.833 127.5,115.167 127.5,117.5C 124.833,117.5 122.167,117.5 119.5,117.5C 119.5,108.5 119.5,99.5 119.5,90.5C 129.58,90.0766 139.58,90.5766 149.5,92C 151.059,93.9958 151.726,96.3291 151.5,99C 152.008,102.228 151.008,104.728 148.5,106.5C 150.288,107.283 151.288,108.616 151.5,110.5 Z"/></g>
<g><path style="opacity:1" fill="#6c6c6c" d="M 158.5,90.5 C 158.5,99.1667 158.5,107.833 158.5,116.5C 160.833,116.5 163.167,116.5 165.5,116.5C 165.5,107.833 165.5,99.1667 165.5,90.5C 166.493,99.3178 166.827,108.318 166.5,117.5C 163.5,117.5 160.5,117.5 157.5,117.5C 157.173,108.318 157.507,99.3178 158.5,90.5 Z"/></g>
<g><path style="opacity:1" fill="#000000" d="M 158.5,90.5 C 160.833,90.5 163.167,90.5 165.5,90.5C 165.5,99.1667 165.5,107.833 165.5,116.5C 163.167,116.5 160.833,116.5 158.5,116.5C 158.5,107.833 158.5,99.1667 158.5,90.5 Z"/></g>
<g><path style="opacity:1" fill="#727272" d="M 172.5,90.5 C 172.5,99.1667 172.5,107.833 172.5,116.5C 174.833,116.5 177.167,116.5 179.5,116.5C 179.171,110.463 179.504,104.463 180.5,98.5C 181.107,98.6236 181.44,98.9569 181.5,99.5C 180.51,105.31 180.177,111.31 180.5,117.5C 177.5,117.5 174.5,117.5 171.5,117.5C 171.173,108.318 171.507,99.3178 172.5,90.5 Z"/></g>
<g><path style="opacity:1" fill="#030303" d="M 172.5,90.5 C 176.514,90.3345 180.514,90.5012 184.5,91C 189.76,96.4195 194.427,102.253 198.5,108.5C 198.56,109.043 198.893,109.376 199.5,109.5C 200.496,103.202 200.83,96.8682 200.5,90.5C 202.833,90.5 205.167,90.5 207.5,90.5C 207.5,99.1667 207.5,107.833 207.5,116.5C 203.5,116.5 199.5,116.5 195.5,116.5C 190.863,110.858 186.197,105.191 181.5,99.5C 181.44,98.9569 181.107,98.6236 180.5,98.5C 179.504,104.463 179.171,110.463 179.5,116.5C 177.167,116.5 174.833,116.5 172.5,116.5C 172.5,107.833 172.5,99.1667 172.5,90.5 Z"/></g>
<g><path style="opacity:1" fill="#5e5e5e" d="M 200.5,90.5 C 200.83,96.8682 200.496,103.202 199.5,109.5C 198.893,109.376 198.56,109.043 198.5,108.5C 199.167,102.5 199.833,96.5 200.5,90.5 Z"/></g>
<g><path style="opacity:1" fill="#707070" d="M 207.5,90.5 C 208.493,99.3178 208.827,108.318 208.5,117.5C 203.968,117.818 199.634,117.485 195.5,116.5C 199.5,116.5 203.5,116.5 207.5,116.5C 207.5,107.833 207.5,99.1667 207.5,90.5 Z"/></g>
<g><path style="opacity:1" fill="#fafafa" d="M 8.5,97.5 C 14.1764,97.3339 19.8431,97.5006 25.5,98C 27.5037,100.841 28.0037,104.007 27,107.5C 26.5831,108.756 25.7498,109.423 24.5,109.5C 19.1667,109.5 13.8333,109.5 8.5,109.5C 8.5,105.5 8.5,101.5 8.5,97.5 Z"/></g>
<g><path style="opacity:1" fill="#f8f8f8" d="M 49.5,97.5 C 55.2055,97.1712 60.8722,97.5046 66.5,98.5C 68.0996,102.588 67.7663,106.422 65.5,110C 60.1667,110.667 54.8333,110.667 49.5,110C 46.8598,105.768 46.8598,101.601 49.5,97.5 Z"/></g>
<g><path style="opacity:1" fill="#f5f5f5" d="M 127.5,97.5 C 132.844,97.334 138.177,97.5006 143.5,98C 144.833,99.6667 144.833,101.333 143.5,103C 138.177,103.499 132.844,103.666 127.5,103.5C 127.5,101.5 127.5,99.5 127.5,97.5 Z"/></g>
<g><path style="opacity:1" fill="#a2a2a2" d="M 8.5,97.5 C 8.5,101.5 8.5,105.5 8.5,109.5C 13.8333,109.5 19.1667,109.5 24.5,109.5C 19.0247,110.489 13.358,110.822 7.5,110.5C 7.18178,105.968 7.51511,101.634 8.5,97.5 Z"/></g>
<g><path style="opacity:1" fill="#606060" d="M -0.5,90.5 C -0.166667,90.5 0.166667,90.5 0.5,90.5C 0.5,99.1667 0.5,107.833 0.5,116.5C 9.5,116.5 18.5,116.5 27.5,116.5C 18.3483,117.494 9.01496,117.827 -0.5,117.5C -0.5,108.5 -0.5,99.5 -0.5,90.5 Z"/></g>
<g><path style="opacity:1" fill="#636363" d="M 81.5,90.5 C 81.5,99.1667 81.5,107.833 81.5,116.5C 83.8333,116.5 86.1667,116.5 88.5,116.5C 88.5,113.167 88.5,109.833 88.5,106.5C 94.5,106.5 100.5,106.5 106.5,106.5C 106.5,109.833 106.5,113.167 106.5,116.5C 108.833,116.5 111.167,116.5 113.5,116.5C 113.5,107.833 113.5,99.1667 113.5,90.5C 114.493,99.3178 114.827,108.318 114.5,117.5C 111.5,117.5 108.5,117.5 105.5,117.5C 105.5,114.167 105.5,110.833 105.5,107.5C 100.167,107.5 94.8333,107.5 89.5,107.5C 89.5,110.833 89.5,114.167 89.5,117.5C 86.5,117.5 83.5,117.5 80.5,117.5C 80.1734,108.318 80.5067,99.3178 81.5,90.5 Z"/></g>
<g><path style="opacity:1" fill="#000000" d="M 81.5,90.5 C 83.8333,90.5 86.1667,90.5 88.5,90.5C 88.5,93.8333 88.5,97.1667 88.5,100.5C 94.5,100.5 100.5,100.5 106.5,100.5C 106.5,97.1667 106.5,93.8333 106.5,90.5C 108.833,90.5 111.167,90.5 113.5,90.5C 113.5,99.1667 113.5,107.833 113.5,116.5C 111.167,116.5 108.833,116.5 106.5,116.5C 106.5,113.167 106.5,109.833 106.5,106.5C 100.5,106.5 94.5,106.5 88.5,106.5C 88.5,109.833 88.5,113.167 88.5,116.5C 86.1667,116.5 83.8333,116.5 81.5,116.5C 81.5,107.833 81.5,99.1667 81.5,90.5 Z"/></g>
<g><path style="opacity:1" fill="#7e7e7e" d="M 88.5,90.5 C 89.4767,93.2869 89.81,96.2869 89.5,99.5C 94.8333,99.5 100.167,99.5 105.5,99.5C 105.19,96.2869 105.523,93.2869 106.5,90.5C 106.5,93.8333 106.5,97.1667 106.5,100.5C 100.5,100.5 94.5,100.5 88.5,100.5C 88.5,97.1667 88.5,93.8333 88.5,90.5 Z"/></g>
<g><path style="opacity:1" fill="#727272" d="M 151.5,110.5 C 152.468,112.607 152.802,114.941 152.5,117.5C 149.5,117.5 146.5,117.5 143.5,117.5C 143.5,115.833 143.5,114.167 143.5,112.5C 144.434,113.568 144.768,114.901 144.5,116.5C 146.833,116.5 149.167,116.5 151.5,116.5C 151.5,114.5 151.5,112.5 151.5,110.5 Z"/></g>
<g><path style="opacity:1" fill="#ac0302" d="M -0.5,120.5 C 82.5,120.5 165.5,120.5 248.5,120.5C 248.5,126.5 248.5,132.5 248.5,138.5C 165.5,138.5 82.5,138.5 -0.5,138.5C -0.5,132.5 -0.5,126.5 -0.5,120.5 Z"/></g>
<g><path style="opacity:1" fill="#de9897" d="M 82.5,123.5 C 80.5772,127.029 79.9106,131.029 80.5,135.5C 79.5151,131.366 79.1818,127.032 79.5,122.5C 80.791,122.263 81.791,122.596 82.5,123.5 Z"/></g>
<g><path style="opacity:1" fill="#e1a2a2" d="M 133.5,123.5 C 129.5,123.5 125.5,123.5 121.5,123.5C 121.185,127.371 121.518,131.038 122.5,134.5C 122.44,135.043 122.107,135.376 121.5,135.5C 120.508,131.217 120.174,126.884 120.5,122.5C 125.032,122.182 129.366,122.515 133.5,123.5 Z"/></g>
<g><path style="opacity:1" fill="#f2d1d0" d="M 202.5,132.5 C 203.375,130.28 203.875,127.28 204,123.5C 204.499,127.486 204.666,131.486 204.5,135.5C 203.448,135.649 202.448,135.483 201.5,135C 198.333,131.833 195.167,128.667 192,125.5C 191.824,128.882 191.324,132.215 190.5,135.5C 189.508,131.217 189.174,126.884 189.5,122.5C 190.552,122.351 191.552,122.517 192.5,123C 195.703,126.371 199.036,129.538 202.5,132.5 Z"/></g>
<g><path style="opacity:1" fill="#c95857" d="M 204.5,135.5 C 204.666,131.486 204.499,127.486 204,123.5C 203.875,127.28 203.375,130.28 202.5,132.5C 202.5,129.167 202.5,125.833 202.5,122.5C 203.5,122.5 204.5,122.5 205.5,122.5C 205.818,127.032 205.485,131.366 204.5,135.5 Z"/></g>
<g><path style="opacity:1" fill="#f2d4d3" d="M 224.5,123.5 C 225.251,122.427 226.251,122.26 227.5,123C 229.333,124.833 231.167,126.667 233,128.5C 242.055,120.629 242.388,120.962 234,129.5C 233,137.5 232,137.5 231,129.5C 228.963,127.294 226.797,125.294 224.5,123.5 Z"/></g>
<g><path style="opacity:1" fill="#efcbcb" d="M 9.5,122.5 C 13.1817,122.335 16.8484,122.501 20.5,123C 22.2603,123.965 22.5937,125.132 21.5,126.5C 17.7592,124.669 13.7592,124.003 9.5,124.5C 9.5,127.5 9.5,130.5 9.5,133.5C 13.7592,133.997 17.7592,133.331 21.5,131.5C 22.731,132.651 22.731,133.817 21.5,135C 8.79088,138.466 4.79088,134.3 9.5,122.5 Z"/></g>
<g><path style="opacity:1" fill="#f5dddd" d="M 133.5,123.5 C 134.811,125.56 134.811,127.726 133.5,130C 129.848,130.499 126.182,130.665 122.5,130.5C 122.5,131.833 122.5,133.167 122.5,134.5C 121.518,131.038 121.185,127.371 121.5,123.5C 125.5,123.5 129.5,123.5 133.5,123.5 Z"/></g>
<g><path style="opacity:1" fill="#ac0202" d="M 122.5,124.5 C 125.833,124.5 129.167,124.5 132.5,124.5C 132.5,125.833 132.5,127.167 132.5,128.5C 129.167,128.5 125.833,128.5 122.5,128.5C 122.5,127.167 122.5,125.833 122.5,124.5 Z"/></g>
<g><path style="opacity:1" fill="#f7e2e2" d="M 159.5,122.5 C 160.675,122.281 161.675,122.614 162.5,123.5C 164.708,127.417 167.041,131.25 169.5,135C 167.26,133.625 164.593,132.792 161.5,132.5C 158,132.299 155,133.133 152.5,135C 155.238,131.021 157.571,126.855 159.5,122.5 Z"/></g>
<g><path style="opacity:1" fill="#b5241c" d="M 160.5,124.5 C 162.166,126.187 163.5,128.187 164.5,130.5C 162.167,131.833 159.833,131.833 157.5,130.5C 158.559,128.466 159.559,126.466 160.5,124.5 Z"/></g>
<g><path style="opacity:1" fill="#f5dede" d="M 80.5,135.5 C 79.9106,131.029 80.5772,127.029 82.5,123.5C 85.0551,126.25 87.3884,129.25 89.5,132.5C 92.1846,129.81 94.5179,126.81 96.5,123.5C 97.325,122.614 98.325,122.281 99.5,122.5C 99.8256,126.884 99.4922,131.217 98.5,135.5C 97.6764,132.215 97.1764,128.882 97,125.5C 95.0456,129.282 92.5456,132.615 89.5,135.5C 87.1924,132.025 84.6924,128.692 82,125.5C 81.8213,129.025 81.3213,132.359 80.5,135.5 Z"/></g>
<g><path style="opacity:1" fill="#f1cfcf" d="M 44.5,122.5 C 48.9017,122.228 53.2351,122.561 57.5,123.5C 58.6586,127.122 58.8253,130.789 58,134.5C 53.5868,135.632 49.0868,135.799 44.5,135C 43.1968,130.834 43.1968,126.667 44.5,122.5 Z"/></g>
<g><path style="opacity:1" fill="#af120b" d="M 45.5,124.5 C 49.1817,124.335 52.8484,124.501 56.5,125C 57.6023,127.401 57.769,129.901 57,132.5C 53.2564,133.626 49.423,133.793 45.5,133C 44.2138,130.168 44.2138,127.335 45.5,124.5 Z"/></g>
</svg>
