<?xml version="1.0" encoding="utf-8"?>
<!-- Generator: Adobe Illustrator 19.2.1, SVG Export Plug-In . SVG Version: 6.00 Build 0)  -->
<svg version="1.1" id="layer" xmlns="http://www.w3.org/2000/svg" xmlns:xlink="http://www.w3.org/1999/xlink" x="0px" y="0px"
	 viewBox="0 0 652 652" style="enable-background:new 0 0 652 652;" xml:space="preserve">
<style type="text/css">
	.st0{fill:#FFFFFF;}
	.st1{fill:#FFD046;}
	.st2{fill:#006A53;}
	.st3{fill:none;stroke:#77787B;stroke-width:0.5812;}
	.st4{fill:#77787B;}
</style>
<rect x="21.6" y="203.7" class="st0" width="161.3" height="159.7"/>
<polygon class="st1" points="21.6,301.5 89,307.4 39.7,271.6 96.4,292 41.8,223.7 110.8,277.1 90.1,221.6 124.5,268.8 121.5,203.7 
	143.1,269 159.2,203.7 21.6,203.7 21.6,339.7 21.6,339.7 88.3,325 "/>
<polygon class="st2" points="21.6,339.9 159.2,339.9 159.2,203.7 182.9,203.7 182.9,363.6 21.6,363.6 "/>
<path class="st3" d="M609.9,286c4.4,0,8.1-3.7,8.1-8.1s-3.7-8.1-8.1-8.1c-4.4,0-8.1,3.7-8.1,8.1S605.5,286,609.9,286z"/>
<path class="st4" d="M608.5,273.2c0-0.2,0-0.2,0.5-0.2c2.8,0,3,1.4,3,2.6c0,0.9-0.5,2.3-2.8,2.3c-0.2,0-0.5,0-0.7,0V273.2z
	 M606,282.7c0.7,0,1.4,0,1.9,0c0.5,0,1.2,0,1.9,0v-0.2h-0.2c-0.7,0-0.7-0.2-0.7-0.9v-3.3c1.2,0,1.2,0,1.9,0.7l2.8,3.7
	c0.5,0,0.7,0,1.2,0s0.7,0,1.2,0v-0.2c-0.5,0-0.9,0-1.4-0.9l-2.1-2.6c-0.2-0.5-0.7-0.7-0.9-0.9c1.6-0.5,2.6-1.4,2.6-2.8
	c0-2.3-1.6-2.8-3.5-2.8c-0.7,0-1.4,0-2.1,0c-0.7,0-1.4,0-1.9,0v0.2h0.2c0.7,0,0.7,0.2,0.7,0.9v7.9c0,0.7-0.2,0.9-0.7,0.9h-0.2v0.2
	H606z"/>
<path class="st4" d="M220.5,340.8v-71.4h42.8v4.6h-29.1v27.7h27.4v4.6h-27.4v30h29.5v4.6h-43.2V340.8z M281.7,269.5h23.5
	c26,0,38.4,18.4,38.4,37c0,22.8-14.9,34.4-35.8,34.4h-26V269.5z M295.2,336.2h8.4c21.9,0,26.3-15.6,26.3-29.5
	c0-17.9-8.4-32.5-25.6-32.5h-9.1C295.2,274.1,295.2,336.2,295.2,336.2z M360.5,340.8v-71.4h13.7v71.4H360.5z M399.1,328
	c3.7,6,7.9,9.1,14.9,9.1c6.3,0,13-4.9,13-12.3c0-20.7-33.9-10.9-33.9-36.5c0-11.4,9.8-20.9,23.2-20.9c8.8,0,17.9,4.9,21.9,12.8
	l-4.6,3c-2.8-5.8-7.2-10.2-14.9-10.2c-7.4,0-11.9,5.6-11.9,12.6c0,16.7,33.9,9.8,33.9,35.6c0,13-11.6,21.9-23.7,21.9
	c-9.8,0-17.7-2.8-22.8-11.2L399.1,328z M488.6,267.4c20.9,0,35.8,16.7,35.8,37.7c0,21.2-14.9,37.7-35.8,37.7
	c-20.9,0-35.8-16.7-35.8-37.7S467.7,267.4,488.6,267.4z M488.6,338.3c17.4,0,21.4-19.3,21.4-33c0-13.9-4-33-21.4-33
	c-17.4,0-21.2,19.3-21.2,33C467.4,319,471.1,338.3,488.6,338.3z M540,340.8v-71.4H552l37.9,49.1h0.2v-49.1h5.8v71.4h-6l-43.9-57
	h-0.2v57H540z M222.2,248.3c1.2,1.9,2.6,3,4.9,3c2.1,0,4.2-1.6,4.2-4c0-6.7-11.2-3.5-11.2-11.9c0-3.7,3.3-6.7,7.7-6.7
	c3,0,5.8,1.6,7.2,4.2l-1.6,0.9c-0.9-1.9-2.3-3.3-4.9-3.3c-2.3,0-4,1.9-4,4.2c0,5.6,11.2,3.3,11.2,11.6c0,4.2-3.7,7.2-7.7,7.2
	c-3.3,0-5.8-0.9-7.4-3.7L222.2,248.3z M250.3,228.3c6.7,0,11.6,5.3,11.6,12.3S257,253,250.3,253s-11.6-5.3-11.6-12.3
	C238.7,233.9,243.6,228.3,250.3,228.3z M250.3,251.6c5.6,0,7-6.3,7-10.9c0-4.6-1.2-10.7-7-10.7c-5.6,0-7,6.3-7,10.7
	C243.3,245.3,244.7,251.6,250.3,251.6z M270.5,229v16.7c0,3.7,3.3,4.9,5.1,4.9c2.1,0,5.6-0.7,5.6-4.6v-17h1.9v17.4
	c0,3-2.3,6.5-8.4,6.5c-4,0-8.8-1.4-8.8-7.4V229C265.9,229,270.5,229,270.5,229z M291.7,252.5v-21.9H287V229H301v1.6h-4.6v21.9H291.7
	z M304.7,252.5v-23.2h4.4v10.2h9.8v-10.2h4.4v23.2h-4.4v-11.2h-9.8v11.2H304.7z M329.1,252.5v-23.2h13.9v1.6h-9.5v9.1h9.1v1.6h-9.1
	v9.8h9.8v1.4h-14.2V252.5z M347.9,252.5v-23.2h10.2c4.2,0,6.7,3,6.7,7c0,3.5-2.6,5.1-6,5.6l6.3,10.9h-4.9l-6.5-11.9h0.2
	c4,0,6.5-1.6,6.5-5.1c0-2.6-1.2-5.1-5.6-5.1h-2.3v22.1h-4.6V252.5z M369.1,252.5v-23.2h4l12.3,16l0,0v-16h1.9v23.2h-1.9l-14.4-18.6
	l0,0v18.6H369.1z M425.3,234.1c-1.6-2.1-3.7-4.2-6.7-4.2c-5.8,0-8.6,4.2-8.6,10.9c0,5.3,2.8,10.5,8.1,10.5c3.5,0,6.5-2.1,7.9-5.1
	l1.6,0.7c-2.1,4.4-5.8,6.3-10.2,6.3c-6.7,0-12.1-5.6-12.1-12.1c0-7.4,5.6-12.6,12.6-12.6c3.7,0,7,1.9,9.1,4.9L425.3,234.1z
	 M447.7,252.5H443l-2.6-6h-8.1l-2.3,6h-2.1l9.5-23.9l0,0L447.7,252.5z M436.5,236.2l-3.5,8.6h7L436.5,236.2z M450.9,252.5v-23.2h4.4
	v21.6h9.5v1.9h-13.9V252.5z M468.4,252.5v-23.2h4.4v23.2H468.4z M479.3,252.5v-23.2h13.5v1.6h-9.1v9.1h8.4v1.6h-8.4V253h-4.4V252.5z
	 M506.5,228.3c6.7,0,11.6,5.3,11.6,12.3s-4.9,12.3-11.6,12.3s-11.6-5.3-11.6-12.3C494.9,233.9,499.7,228.3,506.5,228.3z
	 M506.5,251.6c5.6,0,7-6.3,7-10.9c0-4.6-1.2-10.7-7-10.7c-5.6,0-7,6.3-7,10.7C499.5,245.3,500.9,251.6,506.5,251.6z M522.3,252.5
	v-23.2h10.2c4.2,0,6.7,3,6.7,7c0,3.5-2.6,5.1-6,5.6l6.3,10.9h-4.9l-6.5-11.9h0.2c4,0,6.5-1.6,6.5-5.1c0-2.6-1.2-5.1-5.6-5.1h-2.3
	v22.1h-4.6V252.5z M543.4,252.5v-23.2h4l12.3,16l0,0v-16h1.9v23.2h-1.9l-14.4-18.6l0,0v18.6H543.4z M567.8,252.5v-23.2h4.4v23.2
	H567.8z M596,252.5h-4.6l-2.6-6h-8.1l-2.3,6h-2.1l9.5-23.9l0,0L596,252.5z M584.8,236.2l-3.5,8.6h7L584.8,236.2z"/>
<path class="st4" d="M42,426.4H21.6v-36.3H42v3.7H25.7v11.6h15.1v3.7H25.7v13.3h16v4H42z M68,426.4v-17.4c0-2.1-0.5-4-1.6-4.9
	c-0.9-1.2-2.6-1.6-4.9-1.6c-2.8,0-4.9,0.7-6.3,2.3c-1.4,1.6-2.1,4-2.1,7.7v14.2H49v-27.4h3.5l0.7,3.7h0.2c0.9-1.4,2.1-2.3,3.5-3
	c1.6-0.7,3.3-1.2,5.1-1.2c3.3,0,5.8,0.7,7.4,2.3c1.6,1.6,2.6,4.2,2.6,7.4v17.7h-4V426.4z M92.5,426.8c-4,0-7.2-1.2-9.5-3.7
	c-2.3-2.3-3.5-5.8-3.5-10.2c0-4.4,1.2-7.9,3.3-10.5c2.1-2.6,5.1-4,8.8-4c3.5,0,6,1.2,8.1,3.3c2.1,2.1,3,5.1,3,8.8v2.6H83.9
	c0,3.3,0.9,5.6,2.3,7.2c1.6,1.6,3.7,2.6,6.5,2.6c3,0,5.8-0.7,8.8-1.9v3.7c-1.4,0.7-2.8,1.2-4.2,1.4
	C95.7,426.6,94.3,426.8,92.5,426.8z M91.3,402.2c-2.1,0-4,0.7-5.3,2.1s-2.1,3.5-2.3,5.8H98c0-2.6-0.7-4.6-1.9-6
	C95,402.9,93.4,402.2,91.3,402.2z M122,398.7c1.2,0,2.3,0,3.3,0.2l-0.5,3.7c-1.2-0.2-2.1-0.5-3-0.5c-2.3,0-4.2,0.9-5.6,2.6
	c-1.6,1.9-2.3,4-2.3,6.7v14.6h-4.2v-27h3.5l0.5,5.1h0.2c0.9-1.9,2.3-3,3.7-4.2C118.7,399.2,120.3,398.7,122,398.7z M152.9,399.2v2.6
	l-5.1,0.7c0.5,0.5,0.9,1.4,1.2,2.3c0.5,0.9,0.5,2.1,0.5,3.3c0,2.6-0.9,4.9-2.8,6.3c-1.9,1.6-4.4,2.3-7.4,2.3c-0.9,0-1.6,0-2.3-0.2
	c-1.9,0.9-2.6,2.1-2.6,3.5c0,0.7,0.2,1.4,0.9,1.6c0.7,0.5,1.6,0.5,3.3,0.5h4.9c3,0,5.3,0.7,6.7,1.9c1.6,1.2,2.3,3,2.3,5.3
	c0,3-1.2,5.3-3.7,6.7c-2.3,1.6-6,2.3-10.7,2.3c-3.5,0-6.3-0.7-8.4-1.9c-1.9-1.4-3-3.3-3-5.6c0-1.6,0.5-3,1.6-4.2
	c1.2-1.2,2.6-2.1,4.4-2.6c-0.7-0.2-1.4-0.7-1.9-1.4c-0.5-0.7-0.7-1.4-0.7-2.3s0.2-1.9,0.7-2.6c0.5-0.7,1.4-1.4,2.6-2.1
	c-1.4-0.5-2.6-1.6-3.5-3s-1.4-3-1.4-4.6c0-3,0.9-5.3,2.8-6.7c1.9-1.6,4.4-2.3,7.7-2.3c1.4,0,2.8,0.2,4,0.5h10V399.2z M131,430.8
	c0,1.4,0.7,2.6,1.9,3.3c1.2,0.7,3,1.2,5.3,1.2c3.5,0,6-0.5,7.7-1.6c1.6-0.9,2.6-2.3,2.6-4.2c0-1.4-0.5-2.6-1.4-3
	c-0.9-0.5-2.6-0.9-5.1-0.9h-4.9c-1.9,0-3.3,0.5-4.4,1.4C131.5,428,131,429.2,131,430.8z M133.1,408c0,1.9,0.5,3.3,1.6,4.4
	c1.2,0.9,2.6,1.4,4.4,1.4c4,0,6-1.9,6-5.8c0-4-2.1-6-6-6c-1.9,0-3.5,0.5-4.4,1.6C133.8,404.3,133.1,405.9,133.1,408z M154.1,399.2
	h4.4l6,15.3c1.4,3.5,2.1,6,2.6,7.7h0.2c0.2-0.9,0.7-2.3,1.4-4.4c0.7-2.1,3-8.4,6.7-18.8h4.4L168,429.9c-1.2,3-2.6,5.1-4.2,6.5
	c-1.6,1.2-3.5,1.9-5.8,1.9c-1.2,0-2.6-0.2-3.7-0.5v-3.3c0.9,0.5,2.1,0.5,3.3,0.5c2.8,0,4.9-1.6,6-4.6l1.6-4L154.1,399.2z
	 M209.8,402.4h-7v23.9h-4.2v-23.9h-4.9v-1.9l4.9-1.4v-1.4c0-6.7,3-10,8.8-10c1.4,0,3.3,0.2,5.1,0.9l-1.2,3.3c-1.6-0.5-3-0.7-4.2-0.7
	c-1.6,0-2.8,0.5-3.5,1.6c-0.7,0.9-1.2,2.8-1.2,4.9v1.9h7v2.8H209.8z M238.4,412.7c0,4.4-1.2,7.9-3.5,10.2c-2.3,2.6-5.3,3.7-9.3,3.7
	c-2.6,0-4.6-0.5-6.5-1.6c-1.9-1.2-3.3-2.8-4.4-4.9c-1.2-2.1-1.6-4.6-1.6-7.4c0-4.4,1.2-7.9,3.3-10.2c2.3-2.6,5.3-3.7,9.3-3.7
	c3.7,0,7,1.2,9.1,3.7C237.3,405,238.4,408.5,238.4,412.7z M217.5,412.7c0,3.5,0.7,6,2.1,7.9c1.4,1.9,3.5,2.8,6.3,2.8
	s4.9-0.9,6.3-2.8c1.4-1.9,2.1-4.4,2.1-7.9s-0.7-6-2.1-7.9c-1.4-1.9-3.5-2.8-6.3-2.8s-4.6,0.9-6,2.6
	C218.2,406.6,217.5,409.2,217.5,412.7z M258.2,398.7c1.2,0,2.3,0,3.3,0.2l-0.5,3.7c-1.2-0.2-2.1-0.5-3-0.5c-2.3,0-4.2,0.9-5.6,2.6
	c-1.6,1.9-2.3,4-2.3,6.7v14.6h-4.2v-27h3.5l0.5,5.1h0.2c0.9-1.9,2.3-3,3.7-4.2C254.9,399.2,256.6,398.7,258.2,398.7z M312.4,426.4
	h-4.2l-7.4-24.2c-0.5-1.2-0.7-2.3-1.2-4c-0.5-1.6-0.7-2.6-0.7-3c-0.5,2.1-0.9,4.6-1.9,7.2l-7,23.9h-4.2l-9.8-36.3h4.4l5.8,22.3
	c0.7,3,1.4,6,1.9,8.6c0.5-3,1.2-6,2.1-8.8l6.5-22.1h4.4l7,22.1c0.7,2.6,1.4,5.3,2.1,8.6c0.2-2.3,0.9-5.1,1.9-8.6l5.8-22.3h4.4
	L312.4,426.4z M346.1,426.4v-17.4c0-2.1-0.5-4-1.6-4.9c-1.2-0.9-2.6-1.6-4.9-1.6c-2.8,0-4.9,0.7-6.3,2.3c-1.4,1.6-2.1,4.2-2.1,7.7
	v14.2h-4v-38.8h4.2v11.6c0,1.4,0,2.6-0.2,3.5h0.2c0.9-1.4,2.1-2.3,3.5-3c1.4-0.7,3.3-1.2,5.1-1.2c3.3,0,5.8,0.7,7.4,2.3
	c1.6,1.6,2.6,4.2,2.6,7.4v17.7h-4V426.4z M375.6,426.4l-0.9-4h-0.2c-1.4,1.6-2.8,2.8-4.2,3.5c-1.4,0.7-3,0.9-5.1,0.9
	c-2.8,0-4.9-0.7-6.3-2.1c-1.6-1.4-2.3-3.3-2.3-5.8c0-5.6,4.4-8.4,13.3-8.6l4.6-0.2v-1.6c0-2.1-0.5-3.7-1.4-4.6
	c-0.9-0.9-2.3-1.6-4.4-1.6c-2.3,0-4.9,0.7-7.7,2.1l-1.2-3c1.4-0.7,2.8-1.4,4.4-1.6c1.6-0.5,3.3-0.7,4.9-0.7c3.3,0,5.6,0.7,7.2,2.1
	c1.6,1.4,2.3,3.7,2.3,7v18.6h-3V426.4z M366.1,423.4c2.6,0,4.6-0.7,6-2.1c1.4-1.4,2.3-3.3,2.3-5.8v-2.6l-4.2,0.2
	c-3.3,0-5.6,0.7-7.2,1.6c-1.4,0.9-2.1,2.3-2.1,4.2c0,1.4,0.5,2.6,1.4,3.5C363.3,423.4,364.4,423.4,366.1,423.4z M396.1,423.4
	c0.7,0,1.4,0,2.1-0.2c0.7,0,1.2-0.2,1.6-0.2v3c-0.5,0.2-1.2,0.5-2.1,0.5c-0.9,0.2-1.6,0.2-2.3,0.2c-5.3,0-7.9-2.8-7.9-8.4v-15.8h-4
	v-2.1l4-1.6l1.9-5.8h2.3v6.3h7.9v3.3h-7.9v16c0,1.6,0.5,2.8,1.2,3.7S394.7,423.4,396.1,423.4z M408.6,390.1l0.5,0.5
	c-0.5,1.6-1.2,3.5-1.9,5.8s-1.6,4.2-2.6,6h-3c1.2-4.6,2.1-8.8,2.6-12.3C404.2,390.1,408.6,390.1,408.6,390.1z M431.6,418.9
	c0,2.6-0.9,4.4-2.8,5.8s-4.6,2.1-7.9,2.1c-3.7,0-6.5-0.5-8.6-1.6v-3.7c1.4,0.7,2.8,1.2,4.2,1.6c1.4,0.5,3,0.5,4.4,0.5
	c2.1,0,3.7-0.2,4.9-0.9c1.2-0.7,1.9-1.6,1.9-3c0-1.2-0.5-1.9-1.4-2.8c-0.9-0.7-2.8-1.6-5.3-2.6c-2.6-0.9-4.4-1.9-5.3-2.6
	s-1.9-1.4-2.3-2.3s-0.7-1.9-0.7-3.3c0-2.1,0.9-4,2.8-5.1c1.9-1.2,4.4-1.9,7.4-1.9s5.8,0.7,8.6,1.9l-1.4,3.3
	c-2.8-1.2-5.3-1.6-7.4-1.6c-1.9,0-3.5,0.2-4.4,0.9c-0.9,0.7-1.4,1.4-1.4,2.6c0,0.7,0.2,1.4,0.5,1.9c0.5,0.5,0.9,0.9,1.9,1.4
	c0.9,0.5,2.3,1.2,4.9,2.1c3.3,1.2,5.3,2.3,6.5,3.5C430.9,415.7,431.6,417.1,431.6,418.9z M475.1,426.4l-4.6-11.4h-14.6l-4.4,11.4
	h-4.2l14.4-36.3h3.5l14.4,36.3H475.1z M469.3,411l-4.2-11.2c-0.5-1.4-1.2-3.3-1.6-5.1c-0.5,1.6-0.9,3.3-1.6,5.1l-4.2,11.2H469.3z
	 M502.8,426.4v-17.4c0-2.1-0.5-4-1.6-4.9c-0.9-1.2-2.6-1.6-4.9-1.6c-2.8,0-4.9,0.7-6.3,2.3c-1.4,1.6-2.1,4.2-2.1,7.7v14.2h-4.2
	v-38.8h4.2v11.6c0,1.4,0,2.6-0.2,3.5h0.2c0.9-1.4,2.1-2.3,3.5-3c1.4-0.7,3.3-1.2,5.1-1.2c3.3,0,5.8,0.7,7.4,2.3
	c1.6,1.6,2.6,4.2,2.6,7.4v17.7h-3.7V426.4z M526.9,426.8c-4,0-7.2-1.2-9.5-3.7c-2.3-2.3-3.5-5.8-3.5-10.2c0-4.4,1.2-7.9,3.3-10.5
	c2.1-2.6,5.1-4,8.8-4c3.5,0,6,1.2,8.1,3.3c2.1,2.1,3,5.1,3,8.8v2.6h-18.8c0,3.3,0.9,5.6,2.3,7.2c1.6,1.6,3.7,2.6,6.5,2.6
	c3,0,5.8-0.7,8.8-1.9v3.7c-1.4,0.7-2.8,1.2-4.2,1.4C530.4,426.6,528.8,426.8,526.9,426.8z M525.8,402.2c-2.1,0-4,0.7-5.3,2.1
	c-1.4,1.4-2.1,3.5-2.3,5.8h14.4c0-2.6-0.7-4.6-1.9-6C529.7,402.9,528.1,402.2,525.8,402.2z M560.9,426.4l-0.9-4h-0.2
	c-1.4,1.6-2.8,2.8-4.2,3.5c-1.4,0.7-3,0.9-5.1,0.9c-2.8,0-4.9-0.7-6.3-2.1c-1.6-1.4-2.3-3.3-2.3-5.8c0-5.6,4.4-8.4,13.3-8.6l4.6-0.2
	v-1.6c0-2.1-0.5-3.7-1.4-4.6c-0.9-0.9-2.3-1.6-4.4-1.6c-2.3,0-4.9,0.7-7.7,2.1l-1.2-3c1.4-0.7,2.8-1.4,4.4-1.6
	c1.6-0.5,3.3-0.7,4.9-0.7c3.3,0,5.6,0.7,7.2,2.1c1.6,1.4,2.3,3.7,2.3,7v18.6h-3V426.4z M551.6,423.4c2.6,0,4.6-0.7,6-2.1
	c1.4-1.4,2.3-3.3,2.3-5.8v-2.6l-4.2,0.2c-3.3,0-5.6,0.7-7.2,1.6c-1.4,0.9-2.1,2.3-2.1,4.2c0,1.4,0.5,2.6,1.4,3.5
	C548.8,423.4,549.9,423.4,551.6,423.4z M591.1,422.7L591.1,422.7c-2.1,2.8-5.1,4.2-8.8,4.2c-3.5,0-6.3-1.2-8.4-3.7
	c-2.1-2.3-3-5.8-3-10.2c0-4.4,0.9-7.9,3-10.5c2.1-2.6,4.9-3.7,8.4-3.7c3.7,0,6.5,1.4,8.6,4h0.2l-0.2-1.9v-1.9V388h4.2v38.4h-3.5
	L591.1,422.7z M583,423.4c2.8,0,4.9-0.7,6-2.3c1.2-1.6,1.9-4,1.9-7.4v-0.9c0-4-0.7-6.5-1.9-8.1c-1.4-1.6-3.3-2.6-6.3-2.6
	c-2.3,0-4.2,0.9-5.6,2.8c-1.4,1.9-1.9,4.4-1.9,7.9s0.7,6,1.9,7.9C578.5,422.4,580.4,423.4,583,423.4z M607.6,396.6
	c0,0.9-0.5,1.9-1.2,2.3s-1.6,0.9-3,0.9s-2.3-0.2-3.3-0.5v-1.2c0.5,0.2,0.9,0.5,1.6,0.5s1.2,0.2,1.6,0.2c0.9,0,1.6-0.2,2.1-0.5
	c0.5-0.2,0.7-0.7,0.7-1.4c0-0.5,0-0.7-0.2-0.9s-0.5-0.5-0.7-0.7c-0.5-0.2-0.9-0.5-1.6-0.7c-1.2-0.5-1.9-0.9-2.3-1.4
	c-0.5-0.5-0.7-1.2-0.7-2.1s0.2-1.6,0.9-2.1c0.7-0.5,1.6-0.7,2.6-0.7c1.2,0,2.1,0.2,3.3,0.7l-0.5,1.2c-0.9-0.5-1.9-0.7-2.8-0.7
	c-0.7,0-1.2,0.2-1.6,0.5c-0.5,0.2-0.7,0.7-0.7,1.2s0,0.7,0.2,0.9c0.2,0.2,0.5,0.5,0.7,0.7c0.2,0.2,0.9,0.5,1.6,0.7
	c1.2,0.5,2.1,0.9,2.6,1.4C607.4,395.2,607.6,395.9,607.6,396.6z M615,399.6l-4-10l0,0c0,0.7,0,1.9,0,2.8v7.2h-1.2v-11.2h2.1l3.7,9.3
	l0,0l3.7-9.3h2.1v11.4h-1.4v-7.4c0-0.9,0-1.9,0-2.8l0,0l-4,10C616.2,399.6,615,399.6,615,399.6z"/>
</svg>
