<svg enable-background="new 0 0 261 66" viewBox="0 0 261 66" xmlns="http://www.w3.org/2000/svg" xmlns:xlink="http://www.w3.org/1999/xlink"><symbol id="a" viewBox="-30.5 -32.5 61 65"><path d="m30.3-18.1c-.9-7-7-12.5-14.2-13.6-1.2-.2-5.8-.8-16.5-.8h-.1c-10.7 0-13 .7-14.2.8-7 1-13.4 6-15 13-.7 3.5-.8 7.3-.7 10.9.2 5.1.2 10.1.7 15.2.3 3.4.9 6.7 1.7 10 1.5 6.1 7.5 11.1 13.3 13.2 6.3 2.1 13 2.5 19.5 1l2.1-.6c1.6-.5 3.4-1.1 4.8-2 0 0 0 0 0-.1 0 0 0 0 0-.1v-4.8s0 0 0-.1 0 0-.1 0c0 0 0 0-.1 0-4.1 1-8.4 1.5-12.6 1.5-7.3 0-9.3-3.5-9.9-4.9-.5-1.3-.7-2.6-.9-3.9 0 0 0 0 0-.1 0 0 0 0 0-.1h.1.1c4.1 1 8.2 1.5 12.4 1.5h3c4.2-.1 8.7-.3 12.8-1.1.1 0 .2 0 .3-.1 6.5-1.3 12.8-5.2 13.4-15.2 0-.4.1-4.1.1-4.5 0-1.5.5-9.9 0-15.1z" fill="url(#b)"/></symbol><linearGradient id="b" gradientUnits="userSpaceOnUse" x1="0" x2="0" y1="-32.5004" y2="32.500429"><stop offset="0" stop-color="#6364ff"/><stop offset="1" stop-color="#563acc"/></linearGradient><clipPath id="c"><path d="m0 0h261v66h-261z"/></clipPath><clipPath id="d"><path d="m-.1 0h61v65h-61z"/></clipPath><g clip-path="url(#c)"><g clip-path="url(#d)"><use height="65" transform="translate(30.3948 32.5134)" width="61" x="-30.5" xlink:href="#a" y="-32.5"/></g></g><g fill="#fff"><g enable-background="new"><path d="m24.5 11.7h20.1v5.2h-7.4v21.1h-5.4v-21.1h-7.4v-5.2z"/><path d="m50 31.7c.6.6 1.4 1.1 2.5 1.4s2.1.5 3.1.5c2 0 3-.5 3-1.5 0-.5-.4-.8-1.2-1.1s-1.7-.6-2.8-.8c-1.1-.3-2.2-.6-3.3-1s-2.1-1.1-2.8-2c-.8-.9-1.2-2.1-1.2-3.5 0-1.8.7-3.2 2.1-4.3s3.3-1.6 5.6-1.6c3.6 0 6.4 1.1 8.2 3.3l-3 3.1c-.6-.6-1.3-1.1-2.3-1.4s-1.9-.5-2.8-.5-1.5.1-2 .4-.7.6-.7 1 .4.8 1.2 1c.8.3 1.7.5 2.9.8s2.2.6 3.4 1c1.1.4 2.1 1.1 2.8 2 .8.9 1.2 2.1 1.2 3.5 0 2.1-.8 3.7-2.3 4.8s-3.5 1.6-5.8 1.6c-1.6 0-3.3-.3-4.9-.8-1.6-.6-3-1.4-4.1-2.5z"/><path d="m69.1 20.9c2-2 4.4-3 7.2-3 1.7 0 3.3.4 4.7 1.2 1.5.8 2.7 1.8 3.6 3.2l-4.1 2.7c-1-1.3-2.4-1.9-4.2-1.9-1.4 0-2.6.5-3.6 1.5s-1.5 2.2-1.5 3.6.5 2.6 1.5 3.6 2.2 1.5 3.6 1.5c1.8 0 3.3-.7 4.2-2.2l4.2 2.8c-.9 1.4-2.1 2.5-3.6 3.3s-3.1 1.2-4.8 1.2c-2.8 0-5.2-1-7.2-3s-3-4.4-3-7.2c0-3 1-5.4 3-7.3z"/><path d="m87.8 9.9h5.1v11c1.2-2 3-3.1 5.4-3.1s4.3.8 5.7 2.5 2.1 4.2 2.1 7.5v10.2h-5v-10.2c0-1.7-.4-2.9-1.2-3.8s-1.7-1.3-2.9-1.3-2.1.4-2.9 1.3-1.2 2.1-1.2 3.8v10.2h-5.1z"/><path d="m112 20.9c2-2 4.4-3 7.2-3s5.2 1 7.2 3 3 4.4 3 7.2-1 5.2-3 7.2-4.4 3-7.2 3-5.2-1-7.2-3-3-4.4-3-7.2c0-2.9 1-5.3 3-7.2zm2.2 7.1c0 1.4.5 2.6 1.5 3.6s2.2 1.5 3.6 1.5 2.6-.5 3.6-1.5 1.5-2.2 1.5-3.6-.5-2.6-1.5-3.6-2.2-1.5-3.6-1.5-2.6.5-3.6 1.5c-1.1 1.1-1.5 2.3-1.5 3.6z"/><path d="m132.7 45.9v-27.8h4.6l.3 3.3c.6-1 1.4-1.9 2.6-2.6s2.4-1 3.7-1c2.6 0 4.8 1 6.6 3s2.8 4.4 2.8 7.2-.9 5.2-2.8 7.2c-1.8 2-4 3-6.6 3-1.3 0-2.5-.3-3.6-1s-2-1.5-2.5-2.5v11h-5.1zm6.5-14.1c1 1 2.2 1.5 3.7 1.5 1.4 0 2.7-.5 3.7-1.5s1.5-2.2 1.5-3.7c0-1.4-.5-2.7-1.5-3.7s-2.2-1.5-3.7-1.5-2.7.5-3.7 1.5-1.5 2.2-1.5 3.7c0 1.4.5 2.6 1.5 3.7z"/><path d="m156.5 45.9v-27.8h4.6l.3 3.3c.6-1 1.4-1.9 2.6-2.6 1.1-.7 2.4-1 3.7-1 2.6 0 4.8 1 6.6 3s2.8 4.4 2.8 7.2-.9 5.2-2.8 7.2c-1.8 2-4 3-6.6 3-1.3 0-2.5-.3-3.6-1-1.1-.6-2-1.5-2.5-2.5v11h-5.1zm6.6-14.1c1 1 2.2 1.5 3.7 1.5 1.4 0 2.7-.5 3.7-1.5s1.5-2.2 1.5-3.7c0-1.4-.5-2.7-1.5-3.7s-2.2-1.5-3.7-1.5-2.7.5-3.7 1.5-1.5 2.2-1.5 3.7c0 1.4.5 2.6 1.5 3.7z"/><path d="m179.2 35.5c0-.8.3-1.5.8-2 .6-.6 1.2-.8 2-.8s1.4.3 2 .8c.6.6.8 1.2.8 2s-.3 1.4-.8 2c-.6.6-1.2.9-2 .9s-1.4-.3-2-.8-.8-1.3-.8-2.1z"/><path d="m187.9 38v-19.9h4.6l.3 2.9c.6-1 1.3-1.7 2.3-2.3.9-.6 2-.9 3.2-.9 2.4 0 4.3.8 5.7 2.5s2.1 4.2 2.1 7.5v10.2h-5v-10.2c0-1.7-.4-2.9-1.2-3.8s-1.7-1.3-2.9-1.3-2.1.4-2.9 1.3-1.2 2.1-1.2 3.8v10.2z"/><path d="m212.1 20.9c2-2 4.4-3 7.2-3s5.2 1 7.2 3 2.9 4.4 2.9 7.2c0 .5 0 1.2-.1 2h-14.7c.3 1 .9 1.9 1.8 2.5s2.1 1 3.3 1c1.9 0 3.5-.6 4.6-1.8l4.1 2.6c-.9 1.2-2.2 2.2-3.8 2.9s-3.2 1.1-4.9 1.1c-3 0-5.6-1-7.6-3s-3-4.4-3-7.3 1-5.3 3-7.2zm2.5 5.1h9.5c-.1-1-.7-1.8-1.5-2.4-.9-.7-2-1-3.3-1s-2.3.3-3.2 1-1.4 1.5-1.5 2.4z"/><path d="m233.9 18.1.7-6.5h4.2v6.5h4.5v4.5h-4.5v7c0 2.5 1.1 3.8 3.3 3.8.5 0 1-.1 1.4-.3l1.3 4.5c-.9.4-2 .6-3.4.6-2.2 0-4.1-.7-5.5-2.1s-2.1-3.6-2.1-6.6v-7h-2.6v-4.5h2.7z"/></g><path d="m11.9 23.9c0-1 .3-1.8 1-2.5s1.5-1 2.5-1 1.8.3 2.5 1 1 1.5 1 2.5-.3 1.8-1 2.5-1.5 1-2.5 1-1.8-.3-2.5-1c-.6-.7-1-1.6-1-2.5z"/></g></svg>