<?xml version="1.0" encoding="utf-8"?>
<!-- Generator: Adobe Illustrator 27.2.0, SVG Export Plug-In . SVG Version: 6.00 Build 0)  -->
<svg version="1.1" id="Layer_1" xmlns="http://www.w3.org/2000/svg" xmlns:xlink="http://www.w3.org/1999/xlink" x="0px" y="0px"
	 viewBox="0 0 261 66" style="enable-background:new 0 0 261 66;" xml:space="preserve">
<style type="text/css">
	.st0{fill:url(#SVGID_1_);}
	.st1{clip-path:url(#SVGID_00000105418153093769930320000001402592382457292711_);}
	.st2{enable-background:new    ;}
	.st3{fill:#FFFFFF;}
</style>
<symbol  id="logo-symbol-wordmark" viewBox="-30.5 -32.5 61 65">
	
		<linearGradient id="SVGID_1_" gradientUnits="userSpaceOnUse" x1="-30.5" y1="-65.0004" x2="-30.5" y2="4.286888e-04" gradientTransform="matrix(1 0 0 1 30.5 32.5)">
		<stop  offset="0" style="stop-color:#6364FF"/>
		<stop  offset="1" style="stop-color:#563ACC"/>
	</linearGradient>
	<path class="st0" d="M30.3-18.1c-0.9-7-7-12.5-14.2-13.6c-1.2-0.2-5.8-0.8-16.5-0.8h-0.1c-10.7,0-13,0.7-14.2,0.8
		c-7,1-13.4,6-15,13c-0.7,3.5-0.8,7.3-0.7,10.9c0.2,5.1,0.2,10.1,0.7,15.2c0.3,3.4,0.9,6.7,1.7,10c1.5,6.1,7.5,11.1,13.3,13.2
		c6.3,2.1,13,2.5,19.5,1c0.7-0.2,1.4-0.4,2.1-0.6c1.6-0.5,3.4-1.1,4.8-2c0,0,0,0,0-0.1c0,0,0,0,0-0.1V24c0,0,0,0,0-0.1l0,0
		c0,0,0,0-0.1,0c0,0,0,0-0.1,0c-4.1,1-8.4,1.5-12.6,1.5c-7.3,0-9.3-3.5-9.9-4.9c-0.5-1.3-0.7-2.6-0.9-3.9c0,0,0,0,0-0.1
		c0,0,0,0,0-0.1c0,0,0,0,0.1,0c0,0,0,0,0.1,0c4.1,1,8.2,1.5,12.4,1.5c1,0,2,0,3,0c4.2-0.1,8.7-0.3,12.8-1.1c0.1,0,0.2,0,0.3-0.1
		c6.5-1.3,12.8-5.2,13.4-15.2c0-0.4,0.1-4.1,0.1-4.5C30.3-4.5,30.8-12.9,30.3-18.1z"/>
</symbol>
<g>
	<g>
		<defs>
			<rect id="SVGID_00000161618605739559025710000014642437810234399906_" width="261" height="66"/>
		</defs>
		<clipPath id="SVGID_00000061446116273512922320000015932581575048242602_">
			<use xlink:href="#SVGID_00000161618605739559025710000014642437810234399906_"  style="overflow:visible;"/>
		</clipPath>
		<g style="clip-path:url(#SVGID_00000061446116273512922320000015932581575048242602_);">
			<g>
				<defs>
					<rect id="SVGID_00000044875339210096461130000001482474553832618661_" x="-0.1" y="0" width="61" height="65"/>
				</defs>
				<clipPath id="SVGID_00000034065084293634211240000009362426738647776131_">
					<use xlink:href="#SVGID_00000044875339210096461130000001482474553832618661_"  style="overflow:visible;"/>
				</clipPath>
				<g style="clip-path:url(#SVGID_00000034065084293634211240000009362426738647776131_);">
					
						<use xlink:href="#logo-symbol-wordmark"  width="61" height="65" x="-30.5" y="-32.5" transform="matrix(1 0 0 1 30.3948 32.5134)" style="overflow:visible;"/>
				</g>
			</g>
		</g>
	</g>
</g>
<g class="st2">
	<path class="st3" d="M24.5,11.7h20.1v5.2h-7.4V38h-5.4V16.9h-7.4V11.7z"/>
	<path class="st3" d="M50,31.7c0.6,0.6,1.4,1.1,2.5,1.4s2.1,0.5,3.1,0.5c2,0,3-0.5,3-1.5c0-0.5-0.4-0.8-1.2-1.1
		c-0.8-0.3-1.7-0.6-2.8-0.8c-1.1-0.3-2.2-0.6-3.3-1s-2.1-1.1-2.8-2c-0.8-0.9-1.2-2.1-1.2-3.5c0-1.8,0.7-3.2,2.1-4.3s3.3-1.6,5.6-1.6
		c3.6,0,6.4,1.1,8.2,3.3l-3,3.1c-0.6-0.6-1.3-1.1-2.3-1.4c-1-0.3-1.9-0.5-2.8-0.5c-0.9,0-1.5,0.1-2,0.4c-0.5,0.3-0.7,0.6-0.7,1
		c0,0.4,0.4,0.8,1.2,1c0.8,0.3,1.7,0.5,2.9,0.8s2.2,0.6,3.4,1c1.1,0.4,2.1,1.1,2.8,2c0.8,0.9,1.2,2.1,1.2,3.5c0,2.1-0.8,3.7-2.3,4.8
		c-1.5,1.1-3.5,1.6-5.8,1.6c-1.6,0-3.3-0.3-4.9-0.8c-1.6-0.6-3-1.4-4.1-2.5L50,31.7z"/>
	<path class="st3" d="M69.1,20.9c2-2,4.4-3,7.2-3c1.7,0,3.3,0.4,4.7,1.2c1.5,0.8,2.7,1.8,3.6,3.2L80.5,25c-1-1.3-2.4-1.9-4.2-1.9
		c-1.4,0-2.6,0.5-3.6,1.5c-1,1-1.5,2.2-1.5,3.6c0,1.4,0.5,2.6,1.5,3.6c1,1,2.2,1.5,3.6,1.5c1.8,0,3.3-0.7,4.2-2.2l4.2,2.8
		c-0.9,1.4-2.1,2.5-3.6,3.3c-1.5,0.8-3.1,1.2-4.8,1.2c-2.8,0-5.2-1-7.2-3c-2-2-3-4.4-3-7.2C66.1,25.2,67.1,22.8,69.1,20.9z"/>
	<path class="st3" d="M87.8,9.9h5.1v11c1.2-2,3-3.1,5.4-3.1c2.4,0,4.3,0.8,5.7,2.5c1.4,1.7,2.1,4.2,2.1,7.5V38h-5V27.8
		c0-1.7-0.4-2.9-1.2-3.8c-0.8-0.9-1.7-1.3-2.9-1.3c-1.2,0-2.1,0.4-2.9,1.3c-0.8,0.9-1.2,2.1-1.2,3.8V38h-5.1V9.9z"/>
	<path class="st3" d="M112,20.9c2-2,4.4-3,7.2-3c2.8,0,5.2,1,7.2,3c2,2,3,4.4,3,7.2c0,2.8-1,5.2-3,7.2c-2,2-4.4,3-7.2,3
		c-2.8,0-5.2-1-7.2-3c-2-2-3-4.4-3-7.2C109,25.2,110,22.8,112,20.9z M114.2,28c0,1.4,0.5,2.6,1.5,3.6c1,1,2.2,1.5,3.6,1.5
		c1.4,0,2.6-0.5,3.6-1.5c1-1,1.5-2.2,1.5-3.6c0-1.4-0.5-2.6-1.5-3.6c-1-1-2.2-1.5-3.6-1.5c-1.4,0-2.6,0.5-3.6,1.5
		C114.6,25.5,114.2,26.7,114.2,28z"/>
	<path class="st3" d="M132.7,45.9V18.1h4.6l0.3,3.3c0.6-1,1.4-1.9,2.6-2.6s2.4-1,3.7-1c2.6,0,4.8,1,6.6,3s2.8,4.4,2.8,7.2
		c0,2.8-0.9,5.2-2.8,7.2c-1.8,2-4,3-6.6,3c-1.3,0-2.5-0.3-3.6-1s-2-1.5-2.5-2.5v11H132.7z M139.2,31.8c1,1,2.2,1.5,3.7,1.5
		c1.4,0,2.7-0.5,3.7-1.5c1-1,1.5-2.2,1.5-3.7c0-1.4-0.5-2.7-1.5-3.7c-1-1-2.2-1.5-3.7-1.5c-1.5,0-2.7,0.5-3.7,1.5
		c-1,1-1.5,2.2-1.5,3.7C137.7,29.5,138.2,30.7,139.2,31.8z"/>
	<path class="st3" d="M156.5,45.9V18.1h4.6l0.3,3.3c0.6-1,1.4-1.9,2.6-2.6c1.1-0.7,2.4-1,3.7-1c2.6,0,4.8,1,6.6,3s2.8,4.4,2.8,7.2
		c0,2.8-0.9,5.2-2.8,7.2c-1.8,2-4,3-6.6,3c-1.3,0-2.5-0.3-3.6-1c-1.1-0.6-2-1.5-2.5-2.5v11H156.5z M163.1,31.8c1,1,2.2,1.5,3.7,1.5
		c1.4,0,2.7-0.5,3.7-1.5c1-1,1.5-2.2,1.5-3.7c0-1.4-0.5-2.7-1.5-3.7c-1-1-2.2-1.5-3.7-1.5c-1.5,0-2.7,0.5-3.7,1.5
		c-1,1-1.5,2.2-1.5,3.7C161.6,29.5,162.1,30.7,163.1,31.8z"/>
	<path class="st3" d="M179.2,35.5c0-0.8,0.3-1.5,0.8-2c0.6-0.6,1.2-0.8,2-0.8c0.8,0,1.4,0.3,2,0.8c0.6,0.6,0.8,1.2,0.8,2
		c0,0.8-0.3,1.4-0.8,2c-0.6,0.6-1.2,0.9-2,0.9c-0.8,0-1.4-0.3-2-0.8S179.2,36.3,179.2,35.5z"/>
	<path class="st3" d="M187.9,38V18.1h4.6l0.3,2.9c0.6-1,1.3-1.7,2.3-2.3c0.9-0.6,2-0.9,3.2-0.9c2.4,0,4.3,0.8,5.7,2.5
		c1.4,1.7,2.1,4.2,2.1,7.5V38h-5V27.8c0-1.7-0.4-2.9-1.2-3.8c-0.8-0.9-1.7-1.3-2.9-1.3c-1.2,0-2.1,0.4-2.9,1.3
		c-0.8,0.9-1.2,2.1-1.2,3.8V38H187.9z"/>
	<path class="st3" d="M212.1,20.9c2-2,4.4-3,7.2-3c2.8,0,5.2,1,7.2,3s2.9,4.4,2.9,7.2c0,0.5,0,1.2-0.1,2h-14.7
		c0.3,1,0.9,1.9,1.8,2.5s2.1,1,3.3,1c1.9,0,3.5-0.6,4.6-1.8l4.1,2.6c-0.9,1.2-2.2,2.2-3.8,2.9s-3.2,1.1-4.9,1.1c-3,0-5.6-1-7.6-3
		c-2-2-3-4.4-3-7.3C209.1,25.2,210.1,22.8,212.1,20.9z M214.6,26h9.5c-0.1-1-0.7-1.8-1.5-2.4c-0.9-0.7-2-1-3.3-1
		c-1.3,0-2.3,0.3-3.2,1C215.2,24.3,214.7,25.1,214.6,26z"/>
	<path class="st3" d="M233.9,18.1l0.7-6.5h4.2v6.5h4.5v4.5h-4.5v7c0,2.5,1.1,3.8,3.3,3.8c0.5,0,1-0.1,1.4-0.3l1.3,4.5
		c-0.9,0.4-2,0.6-3.4,0.6c-2.2,0-4.1-0.7-5.5-2.1c-1.4-1.4-2.1-3.6-2.1-6.6v-7h-2.6v-4.5H233.9z"/>
</g>
<g class="st2">
	<path class="st3" d="M11.9,23.9c0-1,0.3-1.8,1-2.5c0.7-0.7,1.5-1,2.5-1c1,0,1.8,0.3,2.5,1c0.7,0.7,1,1.5,1,2.5c0,1-0.3,1.8-1,2.5
		c-0.7,0.7-1.5,1-2.5,1c-1,0-1.8-0.3-2.5-1C12.3,25.7,11.9,24.8,11.9,23.9z"/>
</g>
</svg>
