<?xml version="1.0" encoding="UTF-8"?>
<svg id="Layer_1" data-name="Layer 1" xmlns="http://www.w3.org/2000/svg" viewBox="0 0 45 62" x="0px" y="0px" style="enable-background:new 0 0 45 62;" xml:space="preserve">
  <path class="cls-1" d="M16.12793,32.36377v-2.01611c0-.72021-.0249-1.41504-.07178-2.08789-2.16016,0-4.22461.03613-6.19238.10791-1.96875.07178-3.95996.15625-5.97559.25195.09521-.67139.17969-1.33203.25195-1.97998.07178-.64795.10791-1.30713.10791-1.97998,0-.67139-.03613-1.33203-.10791-1.97998-.07227-.64795-.15674-1.30713-.25195-1.97998,2.30371.19238,4.4873.34863,6.55176.46777,2.06348.12061,3.91162.18018,5.54395.18018-.04834-1.67969-.10791-3.38379-.17969-5.11182-.07227-1.72803-.22852-3.35938-.46826-4.896.81592.09668,1.60791.17969,2.37598.25195.76758.07178,1.53564.10791,2.3042.10791.76709,0,1.53564-.03613,2.30371-.10791.76758-.07227,1.55957-.15527,2.37598-.25195-.24072,1.53662-.396,3.16797-.46777,4.896-.07227,1.72803-.13281,3.43213-.18018,5.11182,1.63135,0,3.47998-.05957,5.54395-.18018,2.06348-.11914,4.24805-.27539,6.55225-.46777-.09668.67285-.18018,1.33203-.25195,1.97998-.07227.64795-.10791,1.30859-.10791,1.97998,0,.67285.03564,1.33203.10791,1.97998.07178.64795.15527,1.30859.25195,1.97998-2.01611-.0957-4.0083-.18018-5.97607-.25195-1.96875-.07178-4.03174-.10791-6.19189-.10791-.04834.67285-.07227,1.36768-.07227,2.08789v12.16797c0,.67285.02393,1.34424.07227,2.01611,1.67969,0,3.55176-.05957,5.61572-.18018,2.06348-.11914,4.24805-.27539,6.55225-.46777-.09668.67285-.18018,1.33203-.25195,1.97998-.07227.64795-.10791,1.30811-.10791,1.97998,0,.67285.03564,1.33203.10791,1.97998.07178.64795.15527,1.30811.25195,1.97998-2.01611-.0957-4.021-.18018-6.01221-.25195-1.99219-.07227-4.02051-.10791-6.08398-.10791.04736,1.43994.10791,3.0127.18018,4.71582.07178,1.70459.22705,3.25244.46777,4.64404-.81641-.09668-1.6084-.14404-2.37598-.14404h-4.60791c-.76807,0-1.56006.04736-2.37598.14404.23975-1.3916.396-2.93945.46826-4.64404.07178-1.70312.13135-3.27588.17969-4.71582-2.06445,0-4.09277.03564-6.08398.10791-1.99219.07178-3.99609.15625-6.01172.25195.09521-.67188.17969-1.33203.25195-1.97998.07178-.64795.10791-1.30713.10791-1.97998,0-.67188-.03613-1.33203-.10791-1.97998-.07227-.64795-.15674-1.30713-.25195-1.97998,2.30371.19238,4.4873.34863,6.55176.46777,2.06348.12061,3.93555.18018,5.61621.18018.04688-.67188.07178-1.34326.07178-2.01611v-10.15186Z"/>
  <path class="cls-2" d="M12.80225,42.35205c-.60791,0-1.19189-.1123-1.75195-.33594-.56006-.22461-1.05615-.57617-1.48828-1.05615-.43164-.47998-.77588-1.09619-1.03174-1.84814s-.38379-1.64795-.38379-2.68799c0-1.13623.13574-2.104.40771-2.90381.27246-.80029.62793-1.45215,1.06787-1.95605.44043-.50391.94434-.86035,1.51221-1.06787.56787-.20801,1.14844-.31201,1.73975-.31201.72021,0,1.34424.13623,1.87207.40771.52832.27197.93604.69629,1.22412,1.27197h.04785v-1.94385c0-.56006-.00342-1.13184-.01172-1.71582-.00781-.58398-.02002-1.14014-.03613-1.66797-.01562-.52832-.03613-1-.06006-1.41602s-.05176-.72803-.08398-.93604c.20801.03223.47217.06006.79199.08398.32031.02393.65625.03564,1.0083.03564s.68799-.01172,1.00781-.03564c.32031-.02393.58398-.05176.79199-.08398-.03174.67188-.06006,1.33594-.08398,1.9917-.02393.65625-.04395,1.32031-.06006,1.99219-.01562.67188-.02783,1.35205-.03613,2.04004-.00781.6875-.01172,1.42383-.01172,2.20801v7.87207c0,1.56787.01611,3.00781.04785,4.31982.03223,1.31201.08008,2.64014.14404,3.98389-.20801-.03223-.47168-.06006-.79199-.08398-.31982-.02393-.65576-.03564-1.00781-.03564s-.68799.01172-1.0083.03564c-.31982.02393-.58398.05176-.79199.08398.06396-1.34375.1123-2.67188.14404-3.98389.03223-1.31201.04785-2.75195.04785-4.31982h-.04785c-.27197.67188-.6958,1.18359-1.27197,1.53564s-1.20801.52832-1.896.52832ZM11.69824,36.35205c0,1.58398.19629,2.73193.58789,3.44385.39258.71191.9082,1.06787,1.54834,1.06787.30371,0,.5918-.08789.86377-.26367.27246-.17627.51611-.45605.73193-.84033.21631-.38379.38818-.8877.51611-1.51172.12842-.62402.19189-1.38428.19189-2.28027,0-1.45605-.18799-2.53174-.56396-3.22803-.37549-.6958-.92383-1.04395-1.64404-1.04395-.6875,0-1.23193.37598-1.63184,1.12793s-.6001,1.92822-.6001,3.52832Z"/>
</svg>